<?xml version="1.0" encoding="utf-8"?>
<!-- Generator: Adobe Illustrator 18.0.0, SVG Export Plug-In . SVG Version: 6.00 Build 0)  -->
<!DOCTYPE svg PUBLIC "-//W3C//DTD SVG 1.1//EN" "http://www.w3.org/Graphics/SVG/1.1/DTD/svg11.dtd">
<svg version="1.1" id="Ebene_1" xmlns="http://www.w3.org/2000/svg" xmlns:xlink="http://www.w3.org/1999/xlink" x="0px" y="0px"
	 viewBox="0 0 177 177" enable-background="new 0 0 177 177" xml:space="preserve">
<g id="Upstairs_x5F_Logo.svg">
	<g>
		<defs>
			<rect id="SVGID_1_" x="0" y="0" width="177" height="177"/>
		</defs>
		<clipPath id="SVGID_2_">
			<use xlink:href="#SVGID_1_"  overflow="visible"/>
		</clipPath>
		<polygon clip-path="url(#SVGID_2_)" fill="#1D1D1B" points="66.5,10.4 112,55.8 21.1,55.8 		"/>
		<rect x="50.5" y="48.4" clip-path="url(#SVGID_2_)" fill="#1D1D1B" width="32.1" height="51.4"/>
		<g clip-path="url(#SVGID_2_)">
			<defs>
				<rect id="SVGID_3_" x="0" y="0" width="177" height="177"/>
			</defs>
			<clipPath id="SVGID_4_">
				<use xlink:href="#SVGID_3_"  overflow="visible"/>
			</clipPath>
			<path clip-path="url(#SVGID_4_)" fill="#1D1D1B" d="M82.5,100.3c0,8.9-7.2,16-16,16c-8.9,0-16-7.2-16-16c0-8.9,7.2-16,16-16
				C75.4,84.3,82.5,91.5,82.5,100.3"/>
			<rect x="111.5" y="55.3" clip-path="url(#SVGID_4_)" fill="#1D1D1B" width="18.4" height="61"/>
			<path clip-path="url(#SVGID_4_)" fill="#1D1D1B" d="M158.9,85.8c0,16.5-13,29.9-29.4,30.5v-61C145.8,55.9,158.9,69.4,158.9,85.8"
				/>
			<path clip-path="url(#SVGID_4_)" fill="#1D1D1B" d="M111.9,96.1v51.4H83v-9.4C99.9,131.6,111.9,115.3,111.9,96.1"/>
			<rect x="83" y="144.3" clip-path="url(#SVGID_4_)" fill="#1D1D1B" width="28.9" height="15.6"/>
		</g>
	</g>
</g>
<g>
</g>
<g>
</g>
<g>
</g>
<g>
</g>
<g>
</g>
<g>
</g>
<g>
</g>
<g>
</g>
<g>
</g>
<g>
</g>
<g>
</g>
<g>
</g>
<g>
</g>
<g>
</g>
<g>
</g>
</svg>
