<?xml version="1.0" encoding="utf-8"?>
<!-- Generator: Adobe Illustrator 18.0.0, SVG Export Plug-In . SVG Version: 6.00 Build 0)  -->
<!DOCTYPE svg PUBLIC "-//W3C//DTD SVG 1.1//EN" "http://www.w3.org/Graphics/SVG/1.1/DTD/svg11.dtd">
<svg version="1.1" id="Ebene_1" xmlns="http://www.w3.org/2000/svg" xmlns:xlink="http://www.w3.org/1999/xlink" x="0px" y="0px"
	 viewBox="0 0 265.6 37.5" enable-background="new 0 0 265.6 37.5" xml:space="preserve">
<g id="mehranzeigen.svg">
	<rect id="Linie_1_" x="14" y="0" width="7" height="35.7"/>
	<rect id="Linie" x="0" y="14" width="35" height="7"/>
	<g id="Text_1_">
		<rect x="43.6" y="4.5" fill="none" width="222" height="33"/>
		<path d="M57,18.1c0.2,0.4,0.3,0.7,0.5,1.1c0.1-0.4,0.3-0.8,0.5-1.1c0.2-0.4,0.3-0.7,0.5-1.1l5.8-11.2c0.1-0.2,0.2-0.3,0.3-0.4
			c0.1-0.1,0.2-0.2,0.3-0.2c0.1,0,0.2-0.1,0.4-0.1c0.1,0,0.3,0,0.5,0H69v21h-3.8V13.2c0-0.3,0-0.5,0-0.9c0-0.3,0-0.6,0.1-1l-6,11.4
			c-0.3,0.6-0.8,0.9-1.5,0.9h-0.6c-0.3,0-0.6-0.1-0.9-0.2c-0.3-0.2-0.5-0.4-0.6-0.7l-6-11.4c0,0.3,0.1,0.7,0.1,1c0,0.3,0,0.6,0,0.9
			v12.9h-3.8v-21h3.3c0.2,0,0.3,0,0.5,0c0.1,0,0.3,0,0.4,0.1c0.1,0,0.2,0.1,0.3,0.2c0.1,0.1,0.2,0.2,0.3,0.4L56.5,17
			C56.6,17.4,56.8,17.7,57,18.1z"/>
		<path d="M78.9,11c1,0,1.8,0.2,2.6,0.5s1.5,0.7,2.1,1.3c0.6,0.6,1,1.3,1.4,2.1c0.3,0.8,0.5,1.8,0.5,2.9c0,0.3,0,0.5,0,0.7
			c0,0.2-0.1,0.3-0.1,0.5c-0.1,0.1-0.2,0.2-0.3,0.2c-0.1,0-0.3,0.1-0.4,0.1h-9c0.1,1.4,0.5,2.4,1.2,3.1c0.7,0.6,1.6,1,2.6,1
			c0.6,0,1-0.1,1.4-0.2c0.4-0.1,0.8-0.3,1.1-0.4c0.3-0.2,0.6-0.3,0.8-0.4c0.2-0.1,0.5-0.2,0.7-0.2c0.3,0,0.6,0.1,0.7,0.3l1.2,1.5
			c-0.4,0.5-0.9,0.9-1.4,1.2c-0.5,0.3-1,0.6-1.6,0.8c-0.6,0.2-1.1,0.3-1.7,0.4c-0.6,0.1-1.1,0.1-1.6,0.1c-1,0-2-0.2-2.9-0.5
			c-0.9-0.3-1.7-0.9-2.4-1.5c-0.7-0.7-1.2-1.5-1.6-2.5c-0.4-1-0.6-2.2-0.6-3.5c0-1,0.2-2,0.5-2.9c0.3-0.9,0.8-1.7,1.4-2.3
			s1.4-1.2,2.3-1.6C76.7,11.2,77.8,11,78.9,11z M79,13.8c-1,0-1.7,0.3-2.2,0.8c-0.5,0.5-0.9,1.3-1.1,2.3h6.2c0-0.4-0.1-0.8-0.2-1.2
			c-0.1-0.4-0.3-0.7-0.5-1s-0.5-0.5-0.9-0.7C79.9,13.9,79.5,13.8,79,13.8z"/>
		<path d="M87.9,26.1V4.5h4v8.1c0.6-0.5,1.2-0.9,1.8-1.2c0.7-0.3,1.5-0.5,2.4-0.5c0.8,0,1.5,0.1,2.2,0.4c0.6,0.3,1.2,0.7,1.6,1.2
			c0.4,0.5,0.8,1.1,1,1.8c0.2,0.7,0.3,1.5,0.3,2.3v9.5h-4v-9.5c0-0.8-0.2-1.5-0.6-1.9c-0.4-0.5-1-0.7-1.7-0.7
			c-0.6,0-1.1,0.1-1.6,0.4c-0.5,0.2-1,0.6-1.4,1v10.7H87.9z"/>
		<path d="M104.4,26.1V11.2h2.4c0.4,0,0.7,0.1,0.8,0.2c0.2,0.1,0.3,0.4,0.3,0.8l0.2,1.5c0.5-0.9,1-1.5,1.6-2s1.4-0.7,2.2-0.7
			c0.7,0,1.2,0.2,1.7,0.5l-0.3,3c0,0.2-0.1,0.3-0.2,0.4s-0.2,0.1-0.4,0.1c-0.2,0-0.4,0-0.7-0.1c-0.3,0-0.6-0.1-0.8-0.1
			c-0.7,0-1.3,0.2-1.7,0.6s-0.8,1-1.1,1.7v9.1H104.4z"/>
		<path d="M131.5,26.1c-0.4,0-0.7-0.1-0.9-0.2s-0.4-0.3-0.5-0.7l-0.3-0.9c-0.4,0.3-0.7,0.6-1.1,0.9c-0.4,0.2-0.7,0.5-1.1,0.6
			c-0.4,0.2-0.8,0.3-1.2,0.4c-0.4,0.1-0.9,0.1-1.4,0.1c-0.7,0-1.3-0.1-1.8-0.3s-1-0.4-1.4-0.8c-0.4-0.3-0.7-0.8-0.9-1.3
			c-0.2-0.5-0.3-1.1-0.3-1.8c0-0.6,0.1-1.1,0.4-1.6c0.3-0.5,0.8-1,1.4-1.5s1.6-0.8,2.7-1.1s2.6-0.5,4.3-0.5v-0.8
			c0-0.9-0.2-1.6-0.6-2.1c-0.4-0.4-1-0.7-1.7-0.7c-0.6,0-1,0.1-1.4,0.2c-0.4,0.1-0.7,0.3-1,0.4c-0.3,0.2-0.5,0.3-0.8,0.4
			c-0.2,0.1-0.5,0.2-0.8,0.2c-0.3,0-0.5-0.1-0.7-0.2c-0.2-0.1-0.3-0.3-0.5-0.5l-0.7-1.3c0.9-0.8,1.9-1.4,2.9-1.8s2.2-0.6,3.5-0.6
			c0.9,0,1.7,0.1,2.4,0.4c0.7,0.3,1.3,0.7,1.8,1.2c0.5,0.5,0.9,1.1,1.1,1.8c0.3,0.7,0.4,1.5,0.4,2.3v9.4H131.5z M126.2,23.7
			c0.7,0,1.2-0.1,1.7-0.4c0.5-0.2,1-0.6,1.5-1.1v-2.3c-1,0-1.8,0.1-2.4,0.2c-0.6,0.1-1.2,0.3-1.5,0.5s-0.7,0.4-0.8,0.7
			c-0.2,0.2-0.2,0.5-0.2,0.8c0,0.6,0.2,1,0.5,1.2C125.2,23.6,125.7,23.7,126.2,23.7z"/>
		<path d="M136.5,26.1V11.2h2.5c0.5,0,0.8,0.2,1,0.7l0.2,1c0.3-0.3,0.6-0.6,0.9-0.8c0.3-0.2,0.7-0.4,1-0.6c0.4-0.2,0.8-0.3,1.2-0.4
			s0.9-0.1,1.4-0.1c0.8,0,1.5,0.1,2.2,0.4c0.6,0.3,1.2,0.7,1.6,1.2c0.4,0.5,0.8,1.1,1,1.8c0.2,0.7,0.3,1.5,0.3,2.3v9.5h-4v-9.5
			c0-0.8-0.2-1.5-0.6-1.9c-0.4-0.5-1-0.7-1.7-0.7c-0.6,0-1.1,0.1-1.6,0.4c-0.5,0.2-1,0.6-1.4,1v10.7H136.5z"/>
		<path d="M163.8,12.8c0,0.3,0,0.6-0.1,0.8c-0.1,0.3-0.2,0.5-0.4,0.6l-6.7,8.8h7v3H152v-1.7c0-0.2,0-0.4,0.1-0.6s0.2-0.5,0.4-0.7
			l6.8-8.9h-6.9v-3h11.4V12.8z"/>
		<path d="M172.6,11c1,0,1.8,0.2,2.6,0.5s1.5,0.7,2.1,1.3c0.6,0.6,1,1.3,1.4,2.1c0.3,0.8,0.5,1.8,0.5,2.9c0,0.3,0,0.5,0,0.7
			c0,0.2-0.1,0.3-0.1,0.5c-0.1,0.1-0.2,0.2-0.3,0.2c-0.1,0-0.3,0.1-0.4,0.1h-9c0.1,1.4,0.5,2.4,1.2,3.1c0.7,0.6,1.6,1,2.6,1
			c0.6,0,1-0.1,1.4-0.2c0.4-0.1,0.8-0.3,1.1-0.4c0.3-0.2,0.6-0.3,0.8-0.4c0.2-0.1,0.5-0.2,0.7-0.2c0.3,0,0.6,0.1,0.7,0.3l1.2,1.5
			c-0.4,0.5-0.9,0.9-1.4,1.2c-0.5,0.3-1,0.6-1.6,0.8c-0.6,0.2-1.1,0.3-1.7,0.4c-0.6,0.1-1.1,0.1-1.6,0.1c-1,0-2-0.2-2.9-0.5
			c-0.9-0.3-1.7-0.9-2.4-1.5c-0.7-0.7-1.2-1.5-1.6-2.5c-0.4-1-0.6-2.2-0.6-3.5c0-1,0.2-2,0.5-2.9c0.3-0.9,0.8-1.7,1.4-2.3
			s1.4-1.2,2.3-1.6C170.4,11.2,171.4,11,172.6,11z M172.6,13.8c-1,0-1.7,0.3-2.2,0.8c-0.5,0.5-0.9,1.3-1.1,2.3h6.2
			c0-0.4-0.1-0.8-0.2-1.2c-0.1-0.4-0.3-0.7-0.5-1s-0.5-0.5-0.9-0.7C173.6,13.9,173.1,13.8,172.6,13.8z"/>
		<path d="M186.2,7c0,0.3-0.1,0.7-0.2,0.9s-0.3,0.5-0.5,0.8c-0.2,0.2-0.5,0.4-0.8,0.5c-0.3,0.1-0.6,0.2-1,0.2
			c-0.3,0-0.6-0.1-0.9-0.2s-0.6-0.3-0.8-0.5c-0.2-0.2-0.4-0.5-0.5-0.8s-0.2-0.6-0.2-0.9c0-0.3,0.1-0.7,0.2-0.9s0.3-0.6,0.5-0.8
			c0.2-0.2,0.5-0.4,0.8-0.5s0.6-0.2,0.9-0.2c0.3,0,0.7,0.1,1,0.2c0.3,0.1,0.6,0.3,0.8,0.5c0.2,0.2,0.4,0.5,0.5,0.8
			S186.2,6.6,186.2,7z M185.7,11.2v14.9h-4V11.2H185.7z"/>
		<path d="M194.7,10.9c0.6,0,1.2,0.1,1.8,0.2s1.1,0.3,1.6,0.6h4.4v1.5c0,0.2-0.1,0.4-0.2,0.6c-0.1,0.1-0.3,0.2-0.6,0.3l-1.2,0.2
			c0.2,0.5,0.2,1,0.2,1.5c0,0.7-0.2,1.4-0.5,2c-0.3,0.6-0.7,1.1-1.3,1.5c-0.5,0.4-1.2,0.7-1.9,1c-0.7,0.2-1.5,0.3-2.3,0.3
			c-0.3,0-0.5,0-0.8,0c-0.3,0-0.5,0-0.7-0.1c-0.4,0.2-0.6,0.5-0.6,0.8c0,0.3,0.1,0.5,0.4,0.6c0.3,0.1,0.6,0.2,1.1,0.3
			c0.4,0.1,1,0.1,1.5,0.1s1.2,0,1.8,0.1c0.6,0,1.2,0.1,1.8,0.3c0.6,0.1,1.1,0.3,1.5,0.6c0.4,0.3,0.8,0.6,1.1,1.1
			c0.3,0.5,0.4,1,0.4,1.8c0,0.7-0.2,1.3-0.5,1.9c-0.3,0.6-0.8,1.2-1.4,1.7c-0.6,0.5-1.4,0.9-2.3,1.2s-1.9,0.4-3.1,0.4
			c-1.2,0-2.1-0.1-3-0.3c-0.8-0.2-1.5-0.5-2.1-0.9c-0.6-0.4-1-0.8-1.2-1.3s-0.4-1-0.4-1.5c0-0.7,0.2-1.2,0.6-1.7
			c0.4-0.5,1-0.8,1.7-1.1c-0.4-0.2-0.7-0.5-0.9-0.8c-0.2-0.3-0.3-0.8-0.3-1.3c0-0.4,0.2-0.9,0.5-1.4c0.3-0.5,0.8-0.9,1.5-1.2
			c-0.8-0.4-1.4-1-1.8-1.6s-0.7-1.5-0.7-2.4c0-0.7,0.2-1.4,0.5-2c0.3-0.6,0.7-1.1,1.3-1.5c0.5-0.4,1.2-0.7,1.9-1
			C193.1,11,193.9,10.9,194.7,10.9z M198.5,26.8c0-0.3-0.1-0.5-0.2-0.6c-0.2-0.2-0.4-0.3-0.7-0.4c-0.3-0.1-0.6-0.2-1-0.2
			c-0.4,0-0.8-0.1-1.2-0.1c-0.4,0-0.9,0-1.3-0.1c-0.5,0-0.9-0.1-1.3-0.1c-0.3,0.2-0.6,0.4-0.8,0.7c-0.2,0.3-0.3,0.6-0.3,0.9
			c0,0.2,0.1,0.5,0.2,0.7c0.1,0.2,0.3,0.4,0.6,0.5c0.3,0.1,0.6,0.3,1,0.3c0.4,0.1,1,0.1,1.6,0.1c0.7,0,1.2,0,1.7-0.1
			c0.5-0.1,0.8-0.2,1.1-0.4c0.3-0.2,0.5-0.4,0.6-0.6C198.4,27.3,198.5,27,198.5,26.8z M194.7,18.1c0.8,0,1.4-0.2,1.8-0.6
			c0.4-0.4,0.6-1,0.6-1.6c0-0.7-0.2-1.2-0.6-1.6c-0.4-0.4-1-0.6-1.8-0.6c-0.8,0-1.4,0.2-1.8,0.6c-0.4,0.4-0.6,0.9-0.6,1.6
			c0,0.6,0.2,1.2,0.6,1.6C193.3,17.9,193.9,18.1,194.7,18.1z"/>
		<path d="M210.8,11c1,0,1.8,0.2,2.6,0.5s1.5,0.7,2.1,1.3c0.6,0.6,1,1.3,1.4,2.1c0.3,0.8,0.5,1.8,0.5,2.9c0,0.3,0,0.5,0,0.7
			c0,0.2-0.1,0.3-0.1,0.5c-0.1,0.1-0.2,0.2-0.3,0.2c-0.1,0-0.3,0.1-0.4,0.1h-9c0.1,1.4,0.5,2.4,1.2,3.1c0.7,0.6,1.6,1,2.6,1
			c0.6,0,1-0.1,1.4-0.2c0.4-0.1,0.8-0.3,1.1-0.4c0.3-0.2,0.6-0.3,0.8-0.4c0.2-0.1,0.5-0.2,0.7-0.2c0.3,0,0.6,0.1,0.7,0.3l1.2,1.5
			c-0.4,0.5-0.9,0.9-1.4,1.2c-0.5,0.3-1,0.6-1.6,0.8c-0.6,0.2-1.1,0.3-1.7,0.4c-0.6,0.1-1.1,0.1-1.6,0.1c-1,0-2-0.2-2.9-0.5
			c-0.9-0.3-1.7-0.9-2.4-1.5c-0.7-0.7-1.2-1.5-1.6-2.5c-0.4-1-0.6-2.2-0.6-3.5c0-1,0.2-2,0.5-2.9c0.3-0.9,0.8-1.7,1.4-2.3
			s1.4-1.2,2.3-1.6C208.6,11.2,209.6,11,210.8,11z M210.8,13.8c-1,0-1.7,0.3-2.2,0.8c-0.5,0.5-0.9,1.3-1.1,2.3h6.2
			c0-0.4-0.1-0.8-0.2-1.2c-0.1-0.4-0.3-0.7-0.5-1s-0.5-0.5-0.9-0.7C211.8,13.9,211.4,13.8,210.8,13.8z"/>
		<path d="M219.8,26.1V11.2h2.5c0.5,0,0.8,0.2,1,0.7l0.2,1c0.3-0.3,0.6-0.6,0.9-0.8c0.3-0.2,0.7-0.4,1-0.6c0.4-0.2,0.8-0.3,1.2-0.4
			s0.9-0.1,1.4-0.1c0.8,0,1.5,0.1,2.2,0.4c0.6,0.3,1.2,0.7,1.6,1.2c0.4,0.5,0.8,1.1,1,1.8c0.2,0.7,0.3,1.5,0.3,2.3v9.5h-4v-9.5
			c0-0.8-0.2-1.5-0.6-1.9c-0.4-0.5-1-0.7-1.7-0.7c-0.6,0-1.1,0.1-1.6,0.4c-0.5,0.2-1,0.6-1.4,1v10.7H219.8z"/>
	</g>
</g>
<g>
</g>
<g>
</g>
<g>
</g>
<g>
</g>
<g>
</g>
<g>
</g>
<g>
</g>
<g>
</g>
<g>
</g>
<g>
</g>
<g>
</g>
<g>
</g>
<g>
</g>
<g>
</g>
<g>
</g>
</svg>
