<?xml version="1.0" encoding="utf-8"?>
<!-- Generator: Adobe Illustrator 18.0.0, SVG Export Plug-In . SVG Version: 6.00 Build 0)  -->
<!DOCTYPE svg PUBLIC "-//W3C//DTD SVG 1.1//EN" "http://www.w3.org/Graphics/SVG/1.1/DTD/svg11.dtd">
<svg version="1.1" id="Ebene_1" xmlns="http://www.w3.org/2000/svg" xmlns:xlink="http://www.w3.org/1999/xlink" x="0px" y="0px"
	 viewBox="0 0 270.2 36.4" enable-background="new 0 0 270.2 36.4" xml:space="preserve">
<g id="zurGalerie.svg">
	<path id="Foto" d="M12.3,20.4c0,4.6,3.8,8.4,8.4,8.4s8.4-3.8,8.4-8.4S25.3,12,20.6,12S12.3,15.8,12.3,20.4z M38.7,6.2h-9
		c-0.6-2.6-1.3-5.2-3.9-5.2H15.5c-2.6,0-3.2,2.6-3.9,5.2h-9C1.2,6.2,0,7.4,0,8.8V32c0,1.4,1.2,2.6,2.6,2.6h36.1
		c1.4,0,2.6-1.2,2.6-2.6V8.8C41.3,7.4,40.1,6.2,38.7,6.2z M20.6,31.9c-6.3,0-11.4-5.1-11.4-11.4C9.2,14.1,14.3,9,20.6,9
		c6.3,0,11.4,5.1,11.4,11.4C32.1,26.7,27,31.9,20.6,31.9z M38.7,14h-5.2v-2.6h5.2V14z"/>
	<g id="Text">
		<rect x="48.2" y="3.4" fill="none" width="222" height="33"/>
		<path d="M65.1,4v1.6c0,0.2,0,0.4-0.1,0.7c-0.1,0.2-0.2,0.4-0.3,0.6L54.3,21.6h10.5V25H48.7v-1.7c0-0.2,0-0.4,0.1-0.6
			s0.2-0.4,0.3-0.5L59.5,7.4h-10V4H65.1z"/>
		<path d="M70.8,10.1v9.5c0,0.8,0.2,1.5,0.6,1.9c0.4,0.5,1,0.7,1.7,0.7c0.6,0,1.1-0.1,1.6-0.4c0.5-0.2,1-0.6,1.4-1V10.1h4V25h-2.5
			c-0.5,0-0.8-0.2-1-0.7l-0.3-1c-0.6,0.6-1.3,1.1-2,1.4s-1.6,0.5-2.5,0.5c-0.8,0-1.5-0.1-2.2-0.4c-0.6-0.3-1.2-0.7-1.6-1.2
			c-0.4-0.5-0.7-1.1-1-1.8c-0.2-0.7-0.3-1.5-0.3-2.3v-9.5H70.8z"/>
		<path d="M83.4,25V10.1h2.4c0.4,0,0.7,0.1,0.8,0.2c0.2,0.1,0.3,0.4,0.3,0.8l0.2,1.5c0.5-0.9,1-1.5,1.6-2s1.4-0.7,2.2-0.7
			c0.7,0,1.2,0.2,1.7,0.5l-0.3,3c0,0.2-0.1,0.3-0.2,0.4s-0.2,0.1-0.4,0.1c-0.2,0-0.4,0-0.7-0.1c-0.3,0-0.6-0.1-0.8-0.1
			c-0.7,0-1.3,0.2-1.7,0.6s-0.8,1-1.1,1.7V25H83.4z"/>
		<path d="M115.2,24.7c-1.2,0.4-2.5,0.5-3.9,0.5c-1.7,0-3.3-0.3-4.7-0.8c-1.4-0.5-2.6-1.3-3.6-2.2c-1-1-1.8-2.1-2.3-3.4
			c-0.5-1.3-0.8-2.8-0.8-4.3c0-1.6,0.3-3,0.8-4.3s1.3-2.4,2.2-3.4c1-0.9,2.1-1.7,3.5-2.2c1.4-0.5,2.9-0.8,4.6-0.8
			c0.9,0,1.7,0.1,2.4,0.2c0.8,0.1,1.4,0.3,2.1,0.6c0.6,0.2,1.2,0.5,1.8,0.9c0.5,0.3,1,0.7,1.5,1.1l-1.3,1.9C117.2,8.8,117,9,116.6,9
			c-0.3,0.1-0.6,0-1-0.2c-0.3-0.2-0.7-0.4-1-0.6c-0.3-0.2-0.7-0.3-1.1-0.4c-0.4-0.1-0.8-0.2-1.2-0.3c-0.4-0.1-1-0.1-1.5-0.1
			c-1,0-1.9,0.2-2.7,0.5c-0.8,0.3-1.5,0.8-2,1.4c-0.6,0.6-1,1.4-1.3,2.2c-0.3,0.9-0.4,1.8-0.4,2.9c0,1.2,0.2,2.2,0.5,3.1
			c0.3,0.9,0.8,1.7,1.4,2.3c0.6,0.6,1.3,1.1,2.2,1.4c0.8,0.3,1.8,0.5,2.8,0.5c0.7,0,1.3-0.1,1.9-0.2c0.5-0.1,1.1-0.3,1.6-0.6v-3.5
			h-2.4c-0.3,0-0.5-0.1-0.7-0.2c-0.2-0.1-0.2-0.3-0.2-0.6v-2.4h7.2V23C117.5,23.8,116.4,24.3,115.2,24.7z"/>
		<path d="M131.5,25c-0.4,0-0.7-0.1-0.9-0.2s-0.4-0.3-0.5-0.7l-0.3-0.9c-0.4,0.3-0.7,0.6-1.1,0.9c-0.4,0.2-0.7,0.5-1.1,0.6
			c-0.4,0.2-0.8,0.3-1.2,0.4c-0.4,0.1-0.9,0.1-1.4,0.1c-0.7,0-1.3-0.1-1.8-0.3s-1-0.4-1.4-0.8c-0.4-0.3-0.7-0.8-0.9-1.3
			c-0.2-0.5-0.3-1.1-0.3-1.8c0-0.6,0.1-1.1,0.4-1.6c0.3-0.5,0.8-1,1.4-1.5s1.6-0.8,2.7-1.1s2.6-0.5,4.3-0.5v-0.8
			c0-0.9-0.2-1.6-0.6-2.1c-0.4-0.4-1-0.7-1.7-0.7c-0.6,0-1,0.1-1.4,0.2c-0.4,0.1-0.7,0.3-1,0.4c-0.3,0.2-0.5,0.3-0.8,0.4
			c-0.2,0.1-0.5,0.2-0.8,0.2c-0.3,0-0.5-0.1-0.7-0.2c-0.2-0.1-0.3-0.3-0.5-0.5l-0.7-1.3c0.9-0.8,1.9-1.4,2.9-1.8s2.2-0.6,3.5-0.6
			c0.9,0,1.7,0.1,2.4,0.4c0.7,0.3,1.3,0.7,1.8,1.2c0.5,0.5,0.9,1.1,1.1,1.8c0.3,0.7,0.4,1.5,0.4,2.3V25H131.5z M126.2,22.6
			c0.7,0,1.2-0.1,1.7-0.4c0.5-0.2,1-0.6,1.5-1.1v-2.3c-1,0-1.8,0.1-2.4,0.2c-0.6,0.1-1.2,0.3-1.5,0.5s-0.7,0.4-0.8,0.7
			c-0.2,0.2-0.2,0.5-0.2,0.8c0,0.6,0.2,1,0.5,1.2C125.2,22.4,125.7,22.6,126.2,22.6z"/>
		<path d="M140.5,3.4V25h-4V3.4H140.5z"/>
		<path d="M150.3,9.8c1,0,1.8,0.2,2.6,0.5c0.8,0.3,1.5,0.7,2.1,1.3c0.6,0.6,1,1.3,1.4,2.1c0.3,0.8,0.5,1.8,0.5,2.9
			c0,0.3,0,0.5,0,0.7s-0.1,0.3-0.1,0.5c-0.1,0.1-0.2,0.2-0.3,0.2c-0.1,0-0.3,0.1-0.4,0.1h-9c0.1,1.4,0.5,2.4,1.2,3.1
			c0.7,0.6,1.6,1,2.6,1c0.6,0,1-0.1,1.4-0.2c0.4-0.1,0.8-0.3,1.1-0.4c0.3-0.2,0.6-0.3,0.8-0.4c0.2-0.1,0.5-0.2,0.7-0.2
			c0.3,0,0.6,0.1,0.7,0.3l1.2,1.5c-0.4,0.5-0.9,0.9-1.4,1.2c-0.5,0.3-1,0.6-1.6,0.8s-1.1,0.3-1.7,0.4c-0.6,0.1-1.1,0.1-1.6,0.1
			c-1,0-2-0.2-2.9-0.5c-0.9-0.3-1.7-0.9-2.4-1.5c-0.7-0.7-1.2-1.5-1.6-2.5c-0.4-1-0.6-2.2-0.6-3.5c0-1,0.2-2,0.5-2.9
			c0.3-0.9,0.8-1.7,1.4-2.3s1.4-1.2,2.3-1.6C148.2,10,149.2,9.8,150.3,9.8z M150.4,12.7c-1,0-1.7,0.3-2.2,0.8
			c-0.5,0.5-0.9,1.3-1.1,2.3h6.2c0-0.4-0.1-0.8-0.2-1.2s-0.3-0.7-0.5-1c-0.2-0.3-0.5-0.5-0.9-0.7C151.3,12.7,150.9,12.7,150.4,12.7z
			"/>
		<path d="M159.4,25V10.1h2.4c0.4,0,0.7,0.1,0.8,0.2c0.2,0.1,0.3,0.4,0.3,0.8l0.2,1.5c0.5-0.9,1-1.5,1.6-2c0.6-0.5,1.4-0.7,2.2-0.7
			c0.7,0,1.2,0.2,1.7,0.5l-0.3,3c0,0.2-0.1,0.3-0.2,0.4s-0.2,0.1-0.4,0.1c-0.2,0-0.4,0-0.7-0.1c-0.3,0-0.6-0.1-0.8-0.1
			c-0.7,0-1.3,0.2-1.7,0.6c-0.4,0.4-0.8,1-1.1,1.7V25H159.4z"/>
		<path d="M174.9,5.8c0,0.3-0.1,0.7-0.2,0.9s-0.3,0.5-0.5,0.8c-0.2,0.2-0.5,0.4-0.8,0.5c-0.3,0.1-0.6,0.2-1,0.2
			c-0.3,0-0.6-0.1-0.9-0.2s-0.6-0.3-0.8-0.5c-0.2-0.2-0.4-0.5-0.5-0.8c-0.1-0.3-0.2-0.6-0.2-0.9c0-0.3,0.1-0.7,0.2-0.9
			c0.1-0.3,0.3-0.6,0.5-0.8c0.2-0.2,0.5-0.4,0.8-0.5s0.6-0.2,0.9-0.2c0.3,0,0.7,0.1,1,0.2c0.3,0.1,0.6,0.3,0.8,0.5
			c0.2,0.2,0.4,0.5,0.5,0.8S174.9,5.5,174.9,5.8z M174.4,10.1V25h-4V10.1H174.4z"/>
		<path d="M184.3,9.8c1,0,1.8,0.2,2.6,0.5s1.5,0.7,2.1,1.3c0.6,0.6,1,1.3,1.4,2.1c0.3,0.8,0.5,1.8,0.5,2.9c0,0.3,0,0.5,0,0.7
			s-0.1,0.3-0.1,0.5s-0.2,0.2-0.3,0.2c-0.1,0-0.3,0.1-0.4,0.1h-9c0.1,1.4,0.5,2.4,1.2,3.1c0.7,0.6,1.6,1,2.6,1c0.6,0,1-0.1,1.4-0.2
			s0.8-0.3,1.1-0.4c0.3-0.2,0.6-0.3,0.8-0.4c0.2-0.1,0.5-0.2,0.7-0.2c0.3,0,0.6,0.1,0.7,0.3l1.2,1.5c-0.4,0.5-0.9,0.9-1.4,1.2
			c-0.5,0.3-1,0.6-1.6,0.8s-1.1,0.3-1.7,0.4c-0.6,0.1-1.1,0.1-1.6,0.1c-1,0-2-0.2-2.9-0.5c-0.9-0.3-1.7-0.9-2.4-1.5
			c-0.7-0.7-1.2-1.5-1.6-2.5c-0.4-1-0.6-2.2-0.6-3.5c0-1,0.2-2,0.5-2.9c0.3-0.9,0.8-1.7,1.4-2.3s1.4-1.2,2.3-1.6
			C182.2,10,183.2,9.8,184.3,9.8z M184.4,12.7c-1,0-1.7,0.3-2.2,0.8c-0.5,0.5-0.9,1.3-1.1,2.3h6.2c0-0.4-0.1-0.8-0.2-1.2
			s-0.3-0.7-0.5-1s-0.5-0.5-0.9-0.7C185.3,12.7,184.9,12.7,184.4,12.7z"/>
	</g>
</g>
<g>
</g>
<g>
</g>
<g>
</g>
<g>
</g>
<g>
</g>
<g>
</g>
<g>
</g>
<g>
</g>
<g>
</g>
<g>
</g>
<g>
</g>
<g>
</g>
<g>
</g>
<g>
</g>
<g>
</g>
</svg>
